<mxfile host="app.diagrams.net" modified="2023-08-22T02:57:41.744Z" agent="Mozilla/5.0 (Windows NT 10.0; Win64; x64) AppleWebKit/537.36 (KHTML, like Gecko) Chrome/115.0.0.0 Safari/537.36 Edg/115.0.1901.203" version="21.6.8" etag="GRSA3o2cs6GYeYKm9GEO" type="github">
  <diagram name="Page-1" id="9E2lpJ-y78OD5OOgovou">
    <mxGraphModel>
      <root>
        <mxCell id="0" />
        <mxCell id="1" parent="0" />
      </root>
    </mxGraphModel>
  </diagram>
</mxfile>
